<mxfile host="app.diagrams.net" agent="Mozilla/5.0 (Windows NT 10.0; Win64; x64) AppleWebKit/537.36 (KHTML, like Gecko) Chrome/134.0.0.0 Safari/537.36 Edg/134.0.0.0" version="24.8.2">
  <diagram name="Page-1" id="OeM1e-6gb7xTJcp1o61O">
    <mxGraphModel dx="2667" dy="1269" grid="1" gridSize="10" guides="1" tooltips="1" connect="1" arrows="1" fold="1" page="1" pageScale="1" pageWidth="827" pageHeight="1169" math="0" shadow="0">
      <root>
        <mxCell id="0" />
        <mxCell id="1" parent="0" />
        <mxCell id="Wi5VQ90-tEAxTMl6GfkZ-1" value="Rag embedding page" style="rounded=0;whiteSpace=wrap;html=1;" vertex="1" parent="1">
          <mxGeometry x="530" y="160" width="120" height="60" as="geometry" />
        </mxCell>
        <mxCell id="Wi5VQ90-tEAxTMl6GfkZ-2" value="Actor" style="shape=umlActor;verticalLabelPosition=bottom;verticalAlign=top;html=1;outlineConnect=0;" vertex="1" parent="1">
          <mxGeometry x="220" y="160" width="30" height="60" as="geometry" />
        </mxCell>
        <mxCell id="Wi5VQ90-tEAxTMl6GfkZ-3" value="" style="endArrow=classic;html=1;rounded=0;entryX=0;entryY=0.5;entryDx=0;entryDy=0;" edge="1" parent="1" source="Wi5VQ90-tEAxTMl6GfkZ-2" target="Wi5VQ90-tEAxTMl6GfkZ-1">
          <mxGeometry width="50" height="50" relative="1" as="geometry">
            <mxPoint x="650" y="400" as="sourcePoint" />
            <mxPoint x="700" y="350" as="targetPoint" />
          </mxGeometry>
        </mxCell>
        <mxCell id="Wi5VQ90-tEAxTMl6GfkZ-6" value="1. user clicks&amp;nbsp;&lt;div&gt;generate embeddings&lt;/div&gt;" style="edgeLabel;html=1;align=center;verticalAlign=middle;resizable=0;points=[];" vertex="1" connectable="0" parent="Wi5VQ90-tEAxTMl6GfkZ-3">
          <mxGeometry x="-0.3273" y="4" relative="1" as="geometry">
            <mxPoint as="offset" />
          </mxGeometry>
        </mxCell>
        <mxCell id="Wi5VQ90-tEAxTMl6GfkZ-7" value="" style="endArrow=classic;html=1;rounded=0;exitX=0.5;exitY=1;exitDx=0;exitDy=0;" edge="1" parent="1" source="Wi5VQ90-tEAxTMl6GfkZ-1" target="Wi5VQ90-tEAxTMl6GfkZ-8">
          <mxGeometry width="50" height="50" relative="1" as="geometry">
            <mxPoint x="580" y="950" as="sourcePoint" />
            <mxPoint x="630" y="900" as="targetPoint" />
          </mxGeometry>
        </mxCell>
        <mxCell id="Wi5VQ90-tEAxTMl6GfkZ-9" value="2. Send create embeddings message" style="edgeLabel;html=1;align=center;verticalAlign=middle;resizable=0;points=[];" vertex="1" connectable="0" parent="Wi5VQ90-tEAxTMl6GfkZ-7">
          <mxGeometry x="-0.1765" y="2" relative="1" as="geometry">
            <mxPoint y="-80" as="offset" />
          </mxGeometry>
        </mxCell>
        <mxCell id="Wi5VQ90-tEAxTMl6GfkZ-8" value="RabbitMq" style="rounded=0;whiteSpace=wrap;html=1;" vertex="1" parent="1">
          <mxGeometry x="530" y="1070" width="120" height="60" as="geometry" />
        </mxCell>
        <mxCell id="Wi5VQ90-tEAxTMl6GfkZ-10" value="RagDatabase" style="shape=cylinder3;whiteSpace=wrap;html=1;boundedLbl=1;backgroundOutline=1;size=15;" vertex="1" parent="1">
          <mxGeometry x="220" y="400" width="100" height="130" as="geometry" />
        </mxCell>
        <mxCell id="Wi5VQ90-tEAxTMl6GfkZ-11" value="" style="endArrow=classic;html=1;rounded=0;entryX=1;entryY=0;entryDx=0;entryDy=40;entryPerimeter=0;exitX=0.5;exitY=0;exitDx=0;exitDy=0;" edge="1" parent="1" source="Wi5VQ90-tEAxTMl6GfkZ-17" target="Wi5VQ90-tEAxTMl6GfkZ-10">
          <mxGeometry width="50" height="50" relative="1" as="geometry">
            <mxPoint x="580" y="950" as="sourcePoint" />
            <mxPoint x="630" y="900" as="targetPoint" />
          </mxGeometry>
        </mxCell>
        <mxCell id="Wi5VQ90-tEAxTMl6GfkZ-12" value="4.&amp;nbsp;&lt;div&gt;Get all content items&lt;div&gt;&amp;nbsp;that have no embeddings&lt;/div&gt;&lt;/div&gt;" style="edgeLabel;html=1;align=center;verticalAlign=middle;resizable=0;points=[];" vertex="1" connectable="0" parent="Wi5VQ90-tEAxTMl6GfkZ-11">
          <mxGeometry x="-0.1333" y="4" relative="1" as="geometry">
            <mxPoint x="-111" y="11" as="offset" />
          </mxGeometry>
        </mxCell>
        <mxCell id="Wi5VQ90-tEAxTMl6GfkZ-13" value="" style="endArrow=classic;html=1;rounded=0;entryX=0.5;entryY=0;entryDx=0;entryDy=0;entryPerimeter=0;exitX=0;exitY=1;exitDx=0;exitDy=0;" edge="1" parent="1" source="Wi5VQ90-tEAxTMl6GfkZ-1" target="Wi5VQ90-tEAxTMl6GfkZ-10">
          <mxGeometry width="50" height="50" relative="1" as="geometry">
            <mxPoint x="580" y="950" as="sourcePoint" />
            <mxPoint x="630" y="900" as="targetPoint" />
          </mxGeometry>
        </mxCell>
        <mxCell id="Wi5VQ90-tEAxTMl6GfkZ-14" value="Poll status" style="edgeLabel;html=1;align=center;verticalAlign=middle;resizable=0;points=[];" vertex="1" connectable="0" parent="Wi5VQ90-tEAxTMl6GfkZ-13">
          <mxGeometry x="-0.2348" relative="1" as="geometry">
            <mxPoint as="offset" />
          </mxGeometry>
        </mxCell>
        <mxCell id="Wi5VQ90-tEAxTMl6GfkZ-15" value="OpenAi API" style="rounded=0;whiteSpace=wrap;html=1;" vertex="1" parent="1">
          <mxGeometry x="-473" y="790" width="120" height="60" as="geometry" />
        </mxCell>
        <mxCell id="Wi5VQ90-tEAxTMl6GfkZ-17" value="Azure function&lt;br&gt;Create project embeddings" style="rounded=0;whiteSpace=wrap;html=1;" vertex="1" parent="1">
          <mxGeometry x="410" y="770" width="120" height="60" as="geometry" />
        </mxCell>
        <mxCell id="Wi5VQ90-tEAxTMl6GfkZ-18" value="" style="endArrow=classic;html=1;rounded=0;entryX=0.25;entryY=0;entryDx=0;entryDy=0;exitX=0.5;exitY=1;exitDx=0;exitDy=0;" edge="1" parent="1" source="Wi5VQ90-tEAxTMl6GfkZ-17" target="Wi5VQ90-tEAxTMl6GfkZ-8">
          <mxGeometry width="50" height="50" relative="1" as="geometry">
            <mxPoint x="580" y="950" as="sourcePoint" />
            <mxPoint x="630" y="900" as="targetPoint" />
          </mxGeometry>
        </mxCell>
        <mxCell id="Wi5VQ90-tEAxTMl6GfkZ-19" value="3. Receive message about create embeddings" style="edgeLabel;html=1;align=center;verticalAlign=middle;resizable=0;points=[];" vertex="1" connectable="0" parent="Wi5VQ90-tEAxTMl6GfkZ-18">
          <mxGeometry x="-0.0162" y="-1" relative="1" as="geometry">
            <mxPoint as="offset" />
          </mxGeometry>
        </mxCell>
        <mxCell id="Wi5VQ90-tEAxTMl6GfkZ-22" value="" style="endArrow=classic;html=1;rounded=0;entryX=0.7;entryY=1.008;entryDx=0;entryDy=0;entryPerimeter=0;exitX=0.25;exitY=0;exitDx=0;exitDy=0;" edge="1" parent="1" source="Wi5VQ90-tEAxTMl6GfkZ-17" target="Wi5VQ90-tEAxTMl6GfkZ-10">
          <mxGeometry width="50" height="50" relative="1" as="geometry">
            <mxPoint x="930" y="670" as="sourcePoint" />
            <mxPoint x="910" y="880" as="targetPoint" />
          </mxGeometry>
        </mxCell>
        <mxCell id="Wi5VQ90-tEAxTMl6GfkZ-23" value="5.&amp;nbsp;&lt;div&gt;Create event in embedding&amp;nbsp;&lt;div&gt;events collection for each&amp;nbsp;&lt;/div&gt;&lt;div&gt;content item&lt;div&gt;&lt;br&gt;&lt;/div&gt;&lt;/div&gt;&lt;/div&gt;" style="edgeLabel;html=1;align=center;verticalAlign=middle;resizable=0;points=[];" vertex="1" connectable="0" parent="Wi5VQ90-tEAxTMl6GfkZ-22">
          <mxGeometry x="0.3129" relative="1" as="geometry">
            <mxPoint x="98" y="-53" as="offset" />
          </mxGeometry>
        </mxCell>
        <mxCell id="Wi5VQ90-tEAxTMl6GfkZ-24" value="Azure function&lt;br&gt;Create embedding for item" style="rounded=0;whiteSpace=wrap;html=1;" vertex="1" parent="1">
          <mxGeometry x="-330" y="460" width="120" height="60" as="geometry" />
        </mxCell>
        <mxCell id="Wi5VQ90-tEAxTMl6GfkZ-25" value="6. Respond to create&amp;nbsp;&lt;div&gt;embedding for item event&lt;div&gt;&lt;br&gt;&lt;/div&gt;&lt;/div&gt;" style="endArrow=classic;html=1;rounded=0;entryX=0;entryY=0.5;entryDx=0;entryDy=0;exitX=1;exitY=0.5;exitDx=0;exitDy=0;" edge="1" parent="1" source="Wi5VQ90-tEAxTMl6GfkZ-24" target="Wi5VQ90-tEAxTMl6GfkZ-8">
          <mxGeometry x="-0.0597" y="35" width="50" height="50" relative="1" as="geometry">
            <mxPoint x="390" y="670" as="sourcePoint" />
            <mxPoint x="440" y="620" as="targetPoint" />
            <mxPoint as="offset" />
          </mxGeometry>
        </mxCell>
        <mxCell id="Wi5VQ90-tEAxTMl6GfkZ-26" value="" style="endArrow=classic;html=1;rounded=0;entryX=0;entryY=0;entryDx=0;entryDy=15;entryPerimeter=0;exitX=1;exitY=0;exitDx=0;exitDy=0;" edge="1" parent="1" source="Wi5VQ90-tEAxTMl6GfkZ-24" target="Wi5VQ90-tEAxTMl6GfkZ-10">
          <mxGeometry width="50" height="50" relative="1" as="geometry">
            <mxPoint x="330" y="700" as="sourcePoint" />
            <mxPoint x="440" y="620" as="targetPoint" />
          </mxGeometry>
        </mxCell>
        <mxCell id="Wi5VQ90-tEAxTMl6GfkZ-27" value="7.&amp;nbsp;&lt;div&gt;Get embedding event details&lt;div&gt;&lt;br&gt;&lt;/div&gt;&lt;/div&gt;" style="edgeLabel;html=1;align=center;verticalAlign=middle;resizable=0;points=[];" vertex="1" connectable="0" parent="Wi5VQ90-tEAxTMl6GfkZ-26">
          <mxGeometry x="-0.0687" y="1" relative="1" as="geometry">
            <mxPoint x="-35" y="-4" as="offset" />
          </mxGeometry>
        </mxCell>
        <mxCell id="Wi5VQ90-tEAxTMl6GfkZ-28" value="" style="endArrow=classic;html=1;rounded=0;exitX=0;exitY=0.5;exitDx=0;exitDy=0;entryX=0.417;entryY=0;entryDx=0;entryDy=0;entryPerimeter=0;" edge="1" parent="1" source="Wi5VQ90-tEAxTMl6GfkZ-24" target="Wi5VQ90-tEAxTMl6GfkZ-15">
          <mxGeometry width="50" height="50" relative="1" as="geometry">
            <mxPoint x="390" y="670" as="sourcePoint" />
            <mxPoint x="440" y="620" as="targetPoint" />
          </mxGeometry>
        </mxCell>
        <mxCell id="Wi5VQ90-tEAxTMl6GfkZ-31" value="9. Generate possible&amp;nbsp;&lt;div&gt;questions for content item&lt;div&gt;&lt;br&gt;&lt;/div&gt;&lt;/div&gt;" style="edgeLabel;html=1;align=center;verticalAlign=middle;resizable=0;points=[];" vertex="1" connectable="0" parent="Wi5VQ90-tEAxTMl6GfkZ-28">
          <mxGeometry x="0.0766" y="1" relative="1" as="geometry">
            <mxPoint x="-34" y="-32" as="offset" />
          </mxGeometry>
        </mxCell>
        <mxCell id="Wi5VQ90-tEAxTMl6GfkZ-29" value="" style="endArrow=classic;html=1;rounded=0;exitX=1;exitY=0.25;exitDx=0;exitDy=0;entryX=0;entryY=0.5;entryDx=0;entryDy=0;entryPerimeter=0;" edge="1" parent="1" source="Wi5VQ90-tEAxTMl6GfkZ-24" target="Wi5VQ90-tEAxTMl6GfkZ-10">
          <mxGeometry width="50" height="50" relative="1" as="geometry">
            <mxPoint x="390" y="670" as="sourcePoint" />
            <mxPoint x="440" y="620" as="targetPoint" />
          </mxGeometry>
        </mxCell>
        <mxCell id="Wi5VQ90-tEAxTMl6GfkZ-30" value="8.&amp;nbsp;&lt;div&gt;Get content item&lt;/div&gt;" style="edgeLabel;html=1;align=center;verticalAlign=middle;resizable=0;points=[];" vertex="1" connectable="0" parent="Wi5VQ90-tEAxTMl6GfkZ-29">
          <mxGeometry x="-0.6" relative="1" as="geometry">
            <mxPoint as="offset" />
          </mxGeometry>
        </mxCell>
        <mxCell id="Wi5VQ90-tEAxTMl6GfkZ-32" value="" style="endArrow=classic;html=1;rounded=0;exitX=0.25;exitY=1;exitDx=0;exitDy=0;entryX=1;entryY=0;entryDx=0;entryDy=0;" edge="1" parent="1" source="Wi5VQ90-tEAxTMl6GfkZ-24" target="Wi5VQ90-tEAxTMl6GfkZ-15">
          <mxGeometry width="50" height="50" relative="1" as="geometry">
            <mxPoint x="390" y="670" as="sourcePoint" />
            <mxPoint x="440" y="620" as="targetPoint" />
          </mxGeometry>
        </mxCell>
        <mxCell id="Wi5VQ90-tEAxTMl6GfkZ-33" value="10.&amp;nbsp;&lt;div&gt;Create embedding&lt;/div&gt;" style="edgeLabel;html=1;align=center;verticalAlign=middle;resizable=0;points=[];" vertex="1" connectable="0" parent="Wi5VQ90-tEAxTMl6GfkZ-32">
          <mxGeometry x="0.472" y="2" relative="1" as="geometry">
            <mxPoint x="27" as="offset" />
          </mxGeometry>
        </mxCell>
        <mxCell id="Wi5VQ90-tEAxTMl6GfkZ-34" value="" style="endArrow=classic;html=1;rounded=0;exitX=0.975;exitY=0.4;exitDx=0;exitDy=0;exitPerimeter=0;entryX=0;entryY=1;entryDx=0;entryDy=-15;entryPerimeter=0;" edge="1" parent="1" source="Wi5VQ90-tEAxTMl6GfkZ-24" target="Wi5VQ90-tEAxTMl6GfkZ-10">
          <mxGeometry width="50" height="50" relative="1" as="geometry">
            <mxPoint x="390" y="670" as="sourcePoint" />
            <mxPoint x="440" y="620" as="targetPoint" />
          </mxGeometry>
        </mxCell>
        <mxCell id="Wi5VQ90-tEAxTMl6GfkZ-35" value="11.&amp;nbsp;&lt;div&gt;Save embedding for item&lt;div&gt;&lt;br&gt;&lt;/div&gt;&lt;/div&gt;" style="edgeLabel;html=1;align=center;verticalAlign=middle;resizable=0;points=[];" vertex="1" connectable="0" parent="Wi5VQ90-tEAxTMl6GfkZ-34">
          <mxGeometry x="-0.1631" relative="1" as="geometry">
            <mxPoint x="150" y="10" as="offset" />
          </mxGeometry>
        </mxCell>
      </root>
    </mxGraphModel>
  </diagram>
</mxfile>
